<mxGraphModel dx="0" dy="0" grid="1" gridSize="10" guides="1" tooltips="1" connect="1" arrows="1" fold="1" page="0" pageScale="1" background="none" math="0" shadow="0">
  <root>
    <mxCell id="0" />
    <mxCell id="1" parent="0" />
    <mxCell id="node0" parent="1" vertex="1" value="&lt;p style=&quot;margin:0px;margin-top:4px;text-align:center;&quot;&gt;&lt;b&gt;back.HandTrackingModule.handDetector&lt;/b&gt;&lt;/p&gt;&lt;hr size=&quot;1&quot;/&gt;&lt;p style=&quot;margin:0 0 0 4px;line-height:1.6;&quot;&gt; complexity: &lt;br/&gt; hands: &lt;br/&gt; maxHands: &lt;br/&gt; prev_hand: &lt;br/&gt; mpHands: &lt;br/&gt; mpDraw: &lt;br/&gt; Hand: &lt;br/&gt; trackCon: &lt;br/&gt; mode: &lt;br/&gt; tipIds: &lt;br/&gt; lmList: &lt;br/&gt; detectionCon: &lt;br/&gt; results: &lt;/p&gt;&lt;hr size=&quot;1&quot;/&gt;&lt;p style=&quot;margin:0 0 0 4px;line-height:1.6;&quot;&gt; __init__(self, mode=False, maxHands=2, complexity = 1,                 detectionCon=0.8, trackCon=0.5): &lt;br/&gt; findHands(self, img, draw=True): &lt;br/&gt; findPosition(self, img, handNo=0, draw=True): &lt;br/&gt; fingersUp(self): &lt;br/&gt; findDistance(self, p1, p2, img, draw=True,r=15, t=3): &lt;/p&gt;" style="verticalAlign=top;align=left;overflow=fill;fontSize=14;fontFamily=Helvetica;html=1;rounded=0;shadow=0;comic=0;labelBackgroundColor=none;strokeWidth=1;">
      <mxGeometry x="-153" y="-15" width="327" height="429" as="geometry" />
    </mxCell>
  </root>
</mxGraphModel>